<?xml version="1.0" encoding="UTF-8"?>
<svg
  version="1.1"
  xmlns="http://www.w3.org/2000/svg"
  width="128"
  height="128"
  viewBox="0 0 512 512">

  <!-- Nyx dark rounded background -->
  <rect x="0" y="0" width="512" height="512" rx="96" fill="#020617"/>

  <!-- Your original Java shape, untouched -->
  <path d="M0 0 C-2.36166963 2.36166963 -3.82151109 2.66305102 -7.0234375 3.515625 C-8.03954102 3.79422363 -9.05564453 4.07282227 -10.10253906 4.35986328 C-11.72240723 4.80048096 -11.72240723 4.80048096 -13.375 5.25 C-29.60790141 9.44176552 -29.60790141 9.44176552 -42 20 C-33.32865448 22.44086739 -24.83628598 23.79566432 -15.875 24.625 C-13.90611816 24.81219604 -13.90611816 24.81219604 -11.89746094 25.00317383 C0.72257321 26.16893147 13.32887244 26.78751603 26 27 C27.86108398 27.03287109 27.86108398 27.03287109 29.75976562 27.06640625 C67.62310177 27.62901154 105.57450131 25.96205256 143 20 C143 20.66 143 21.32 143 22 C140.73967361 23.67565529 138.48622354 25.22809789 136.125 26.75 C135.43100098 27.19811035 134.73700195 27.6462207 134.02197266 28.10791016 C132.63390227 29.00220056 131.24443768 29.89433106 129.85351562 30.78417969 C128.37272167 31.75551186 126.93558743 32.79328861 125.515625 33.8515625 C105.17100198 48.33040005 63.1687552 46.59424085 39 48 C38.288508 48.04469421 37.57701599 48.08938843 36.84396362 48.13543701 C26.19434059 48.79399409 15.60358443 49.05958082 4.93359375 48.921875 C3.82840897 48.90933182 2.72322418 48.89678864 1.58454895 48.88386536 C-2.9647763 48.82961263 -7.5135542 48.77165943 -12.06225586 48.67773438 C-15.43876586 48.61145868 -18.81440309 48.57650767 -22.19140625 48.546875 C-23.22044571 48.51793152 -24.24948517 48.48898804 -25.30970764 48.45916748 C-31.01570866 48.33213549 -31.01570866 48.33213549 -35.64038086 51.36816406 C-37.17382219 54.33647032 -37.75435243 55.73113946 -37 59 C-23.80916131 71.28768217 0.52216131 69.37797613 17.375 69.3125 C18.34666107 69.31067719 19.31832214 69.30885437 20.31942749 69.30697632 C42.6935296 69.23635927 63.7095697 66.77706284 85.49072266 61.52490234 C86.31878418 61.35168457 87.1468457 61.1784668 88 61 C89.13453613 60.74839111 90.26907227 60.49678223 91.43798828 60.23754883 C95.72837776 59.95142484 97.2671892 60.78513973 100.828125 63.11328125 C101.87484375 63.78423828 102.9215625 64.45519531 104 65.14648438 C105.0725 65.86126953 106.145 66.57605469 107.25 67.3125 C108.33796875 68.01568359 109.4259375 68.71886719 110.546875 69.44335938 C114.38597679 71.93069822 118.1938925 74.462595 122 77 C122 77.66 122 78.32 122 79 C69.95700713 100.58253528 -1.66386963 106.57335687 -55 86 C-67.25383436 80.49233129 -67.25383436 80.49233129 -70 75 C-70.58519656 70.39157707 -70.52665947 68.12201365 -68.5625 63.9375 C-60.83075508 55.07428022 -51.32830731 50.74800846 -40 48 C-41.2689209 47.80422363 -41.2689209 47.80422363 -42.56347656 47.60449219 C-45.76308076 47.10572779 -48.96102989 46.59759555 -52.15820312 46.08349609 C-53.53067394 45.86468247 -54.90371215 45.64939257 -56.27734375 45.43798828 C-69.41697474 43.41133467 -82.44884412 40.98481919 -92.5 31.6875 C-94.49485105 28.11339186 -94.84271527 25.00859157 -94 21 C-90.28379099 13.47582374 -83.15031413 10.58525468 -75.49682617 7.95239258 C-51.29542049 0.1969354 -25.19076215 -0.46202019 0 0 Z " fill="#784FF2" transform="translate(218,215)"/>
  <path d="M0 0 C2.25750723 1.66965095 4.34689756 3.28124405 6.28515625 5.3125 C6.28515625 5.9725 6.28515625 6.6325 6.28515625 7.3125 C5.18558594 7.26609375 4.08601563 7.2196875 2.953125 7.171875 C-6.48892049 6.89165118 -15.65003602 6.65932855 -23.52734375 12.703125 C-25.92236021 15.17623982 -26.69995113 16.94763086 -26.83984375 20.375 C-24.67499509 26.02766039 -21.00942945 28.32824731 -15.69140625 30.7734375 C9.17235584 41.80155453 38.25129062 43.14543661 65.09765625 44.5625 C66.26654388 44.62443542 66.26654388 44.62443542 67.45904541 44.68762207 C116.8507096 47.21476508 182.36247216 49.62675077 224.28515625 19.3125 C228.7453782 14.84190545 229.59089252 10.5283695 229.59765625 4.3125 C229.5180659 2.3113713 229.42221523 0.3105154 229.28515625 -1.6875 C236.00544579 0.34488428 241.1147996 3.32825961 245.28515625 9.0625 C247.13502507 15.07457366 247.31588057 20.79456058 244.59765625 26.5625 C236.54320829 41.54443612 218.62781699 48.35638178 203.28515625 53.3125 C165.81162262 64.46904545 126.86702407 67.89503263 87.92797852 67.70361328 C84.42077852 67.68650598 80.91426148 67.69673688 77.40708447 67.7139349 C34.50678341 67.8917326 -24.86655833 67.80771092 -58.58984375 37.75 C-63.88856831 31.67205124 -66.1120052 26.92018895 -65.984375 18.9375 C-65.25499504 11.8339734 -61.3154657 7.24058077 -55.921875 2.84765625 C-41.66227509 -7.07096811 -14.96283232 -9.30063822 0 0 Z " fill="#784FF2" transform="translate(141.71484375,362.6875)"/>
  <path d="M0 0 C4.03584233 1.34528078 5.03906006 3.90073918 7 7.4375 C7.35449219 8.0756665 7.70898438 8.71383301 8.07421875 9.37133789 C14.50046635 21.24287476 16.13271359 33.32327714 12.5 46.5625 C4.33061666 69.71379741 -15.07026552 87.74872868 -33.23901367 103.45507812 C-35.25157645 105.22070925 -37.14064594 107.07424044 -39 109 C-41.49916954 111.55254986 -44.03910363 113.87691089 -46.8125 116.125 C-55.38599087 123.51008619 -65.78145555 135.52697798 -67.26904297 147.09155273 C-67.56923032 154.44614279 -65.44563739 159.59243182 -62.125 166.0625 C-61.62613281 167.06547119 -61.12726563 168.06844238 -60.61328125 169.10180664 C-54.15486547 181.91951377 -46.92789943 194.06354995 -38.578125 205.73803711 C-36.22030435 209.06022374 -34.31093322 212.09699428 -33 216 C-61.08817598 202.45085784 -92.45366792 176.58747596 -104 147 C-106.2922455 140.12326349 -106.30238542 129.9650753 -103.5 123.1875 C-102.375 121.12890625 -102.375 121.12890625 -101 119 C-100.46375 118.14277344 -99.9275 117.28554687 -99.375 116.40234375 C-87.3847408 98.64177231 -67.81843641 86.9061969 -50.51074219 74.93188477 C-16.58701366 52.92209283 -16.58701366 52.92209283 2.7890625 19.06640625 C3.4564247 12.52872838 2.01527125 6.18016518 0 0 Z " fill="#784FF2" transform="translate(301,0)"/>
  <path d="M0 0 C0.79921875 0.00902344 1.5984375 0.01804687 2.421875 0.02734375 C3.02515625 0.03894531 3.6284375 0.05054688 4.25 0.0625 C3.77046875 0.97515625 3.77046875 0.97515625 3.28125 1.90625 C1.9778307 4.63158127 1.65387379 6.08186897 2.25 9.0625 C9.7645383 16.5770383 23.83641424 16.44355482 33.79272461 16.53051758 C35.15349777 16.52254997 36.51425934 16.51232595 37.875 16.5 C38.58222198 16.49729095 39.28944397 16.49458191 40.01809692 16.49179077 C61.05894466 16.37091538 84.49739122 14.688504 103.91015625 5.8515625 C106.85709586 4.85776984 108.26342417 5.23575866 111.25 6.0625 C113.7578125 7.41357422 113.7578125 7.41357422 116.375 9.1171875 C117.32890625 9.73207031 118.2828125 10.34695313 119.265625 10.98046875 C120.25046875 11.62628906 121.2353125 12.27210938 122.25 12.9375 C124.20806583 14.20614213 126.16639051 15.47438487 128.125 16.7421875 C129.42050781 17.58885986 129.42050781 17.58885986 130.7421875 18.45263672 C133.21625879 20.04084019 135.72132571 21.56308225 138.25 23.0625 C137.041699 26.68740299 135.67752252 27.18058468 132.390625 28.8659668 C131.70484375 29.19894775 131.0190625 29.53192871 130.3125 29.875 C129.59449219 30.2253833 128.87648438 30.5757666 128.13671875 30.93676758 C88.98163841 49.51087414 30.82954206 55.70687496 -10.75 42.0625 C-18.54265495 39.08648489 -25.84043554 35.88162892 -29.75 28.0625 C-30.40567944 22.78481794 -30.15773681 18.32253356 -27.13671875 13.75390625 C-20.326517 5.44737848 -10.90676172 -0.16039355 0 0 Z " fill="#784FF2" transform="translate(201.75,310.9375)"/>
  <path d="M0 0 C0 0.66 0 1.32 0 2 C-1.56616211 3.13818359 -1.56616211 3.13818359 -3.77734375 4.3984375 C-4.59275635 4.87176514 -5.40816895 5.34509277 -6.24829102 5.83276367 C-7.57944946 6.59617065 -7.57944946 6.59617065 -8.9375 7.375 C-22.78932297 15.50329665 -35.79846707 24.54715697 -48 35 C-48.81082031 35.66515625 -49.62164062 36.3303125 -50.45703125 37.015625 C-56.70931101 42.28288556 -62.66099703 48.05798748 -64.0625 56.4375 C-64.34632712 65.87502157 -59.56013024 74.41224383 -55.4375 82.625 C-50.03805777 93.38164633 -45.49710628 103.54601421 -49.25 115.625 C-53.60496867 127.36092497 -60.88271445 135.02293798 -72.109375 140.5234375 C-77.08682575 142.66547476 -81.61311099 144.25093555 -87 145 C-85.74566499 141.23699497 -83.80830576 139.80830576 -81 137 C-75.4954104 130.47004567 -72.84624355 125.14569659 -72.63671875 116.5390625 C-73.60099287 109.79951222 -76.69196965 104.52267305 -80.75 99.1875 C-81.64391639 97.97151199 -82.5358262 96.75404646 -83.42578125 95.53515625 C-84.08054443 94.64207764 -84.08054443 94.64207764 -84.74853516 93.73095703 C-93.1644111 82.09058238 -98.26971737 71.87447762 -96.5 57.25 C-93.63831492 42.50568879 -84.9249079 31.10308097 -73 22.375 C-52.47450485 8.55220117 -24.74399355 0 0 0 Z " fill="#784FF2" transform="translate(388,71)"/>
  <path d="M0 0 C0.88974569 10.4545118 -5.11185282 18.737332 -11.62329102 26.47241211 C-43.69148546 62.05508504 -109.67379288 69.45278481 -154.5324707 71.88934326 C-206.34959045 74.21309012 -261.57806098 70.09175095 -310 50 C-310.66 49.34 -311.32 48.68 -312 48 C-304.35414312 48.5923374 -296.95536224 49.89438286 -289.4375 51.375 C-207.98629241 66.76016663 -114.06005687 62.00807649 -39 25 C-37.97277832 24.49968262 -37.97277832 24.49968262 -36.92480469 23.98925781 C-24.69772264 17.97446709 -13.3920854 10.55688057 -3.453125 1.1796875 C-2 0 -2 0 0 0 Z " fill="#784FF2" transform="translate(436,406)"/>
  <path d="M0 0 C6.35181048 4.86204683 9.88718134 12.11931523 11.95703125 19.71484375 C13.71622346 35.28515268 10.58974697 49.17124774 0.95703125 61.71484375 C-13.86861012 79.55783679 -38.56749167 88.13632155 -61.04296875 90.71484375 C-57.76368871 87.34693452 -54.39699089 84.2794288 -50.73046875 81.33984375 C-49.76753906 80.55609375 -48.80460937 79.77234375 -47.8125 78.96484375 C-46.16693481 77.6279671 -44.51928455 76.29363994 -42.8671875 74.96484375 C-37.13088345 70.18267444 -32.58822235 64.61957861 -28.04296875 58.71484375 C-27.39972656 57.89886719 -26.75648438 57.08289063 -26.09375 56.2421875 C-19.32203216 47.20833398 -14.38013033 36.21598609 -15.04296875 24.71484375 C-15.74370824 21.76279228 -16.72732369 19.49231665 -18.04296875 16.71484375 C-18.35234375 15.93109375 -18.66171875 15.14734375 -18.98046875 14.33984375 C-20.36460211 12.22293391 -21.76477418 11.78478156 -24.04296875 10.71484375 C-24.71457031 10.37324219 -25.38617188 10.03164062 -26.078125 9.6796875 C-26.74714844 9.34066406 -27.41617188 9.00164062 -28.10546875 8.65234375 C-28.77707031 8.31074219 -29.44867188 7.96914062 -30.140625 7.6171875 C-34.4347477 5.58034491 -38.56781287 5.40074725 -43.23046875 5.15234375 C-43.98005859 5.10916016 -44.72964844 5.06597656 -45.50195312 5.02148438 C-47.3487525 4.9156169 -49.19583709 4.81474615 -51.04296875 4.71484375 C-48.0225922 1.30965961 -45.2586218 -0.30220373 -41.04296875 -1.97265625 C-40.01171875 -2.38902344 -38.98046875 -2.80539063 -37.91796875 -3.234375 C-25.90712807 -7.62420671 -10.87091389 -6.83849077 0 0 Z " fill="#784FF2" transform="translate(424.04296875,221.28515625)"/>
</svg>
